# xmcd
#
# Track frame offsets:
#	150
#	13708
#	28795
#	42998
#	60988
#	77955
#	89960
#	106660
#	117970
#	127983
#
# Disc length: 1913 seconds
#
# Revision: 4
# Processed by: cddbd v1.5.1PL0 Copyright (c) Steve Scherf et al.
# Submitted via: MusicWizard 7.0.2
#
DISCID=7d07770a
DTITLE=Vern Gosdin - Out Of My Heart
DYEAR=1991
DGENRE=Country
TTITLE0=I Knew My Day Would Come
TTITLE1=The Garden
TTITLE2=Love Will Keep Your Hand On The Wheel
TTITLE3=Out Of My Heart
TTITLE4=The Bridge I'm Still Building On
TTITLE5=Once And For All
TTITLE6=This Song Wrote Itself
TTITLE7=A Month Of Sundays
TTITLE8=You've Never Been In Love With You
TTITLE9=I'd Better Write It Down
EXTD=(c)1991 Sony Music - Columbia\nupc 07464470512\nCK 47051\nProduced by Bob Montgomery for Bob 
EXTD=Montgomery Productions
EXTT0=
EXTT1=
EXTT2=
EXTT3=
EXTT4=
EXTT5=
EXTT6=
EXTT7=
EXTT8=
EXTT9=
PLAYORDER=
